%TF.GenerationSoftware,KiCad,Pcbnew,9.0.3*%
%TF.CreationDate,2025-08-27T10:47:47+05:30*%
%TF.ProjectId,iDex_PQ_PCB_V1,69446578-5f50-4515-9f50-43425f56312e,rev?*%
%TF.SameCoordinates,Original*%
%TF.FileFunction,Soldermask,Bot*%
%TF.FilePolarity,Negative*%
%FSLAX46Y46*%
G04 Gerber Fmt 4.6, Leading zero omitted, Abs format (unit mm)*
G04 Created by KiCad (PCBNEW 9.0.3) date 2025-08-27 10:47:47*
%MOMM*%
%LPD*%
G01*
G04 APERTURE LIST*
G04 Aperture macros list*
%AMRoundRect*
0 Rectangle with rounded corners*
0 $1 Rounding radius*
0 $2 $3 $4 $5 $6 $7 $8 $9 X,Y pos of 4 corners*
0 Add a 4 corners polygon primitive as box body*
4,1,4,$2,$3,$4,$5,$6,$7,$8,$9,$2,$3,0*
0 Add four circle primitives for the rounded corners*
1,1,$1+$1,$2,$3*
1,1,$1+$1,$4,$5*
1,1,$1+$1,$6,$7*
1,1,$1+$1,$8,$9*
0 Add four rect primitives between the rounded corners*
20,1,$1+$1,$2,$3,$4,$5,0*
20,1,$1+$1,$4,$5,$6,$7,0*
20,1,$1+$1,$6,$7,$8,$9,0*
20,1,$1+$1,$8,$9,$2,$3,0*%
G04 Aperture macros list end*
%ADD10R,1.700000X1.700000*%
%ADD11C,1.700000*%
%ADD12RoundRect,0.249999X-0.850001X0.850001X-0.850001X-0.850001X0.850001X-0.850001X0.850001X0.850001X0*%
%ADD13C,2.200000*%
%ADD14C,1.600000*%
%ADD15RoundRect,0.249999X-1.250001X1.250001X-1.250001X-1.250001X1.250001X-1.250001X1.250001X1.250001X0*%
%ADD16C,3.000000*%
%ADD17R,3.500000X3.500000*%
%ADD18RoundRect,0.750000X-0.750000X-1.000000X0.750000X-1.000000X0.750000X1.000000X-0.750000X1.000000X0*%
%ADD19RoundRect,0.875000X-0.875000X-0.875000X0.875000X-0.875000X0.875000X0.875000X-0.875000X0.875000X0*%
%ADD20R,1.800000X1.800000*%
%ADD21C,1.800000*%
%ADD22C,2.300000*%
%ADD23R,2.000000X2.000000*%
%ADD24C,2.000000*%
%ADD25C,1.000000*%
G04 APERTURE END LIST*
D10*
%TO.C,J15*%
X122850000Y-29000000D03*
D11*
X120310000Y-29000000D03*
X117770000Y-29000000D03*
X115230000Y-29000000D03*
X112690000Y-29000000D03*
X110150000Y-29000000D03*
X107610000Y-29000000D03*
X105070000Y-29000000D03*
%TD*%
D12*
%TO.C,J3*%
X140525000Y-39715000D03*
D13*
X140525000Y-42255000D03*
X140525000Y-44795000D03*
X140525000Y-47335000D03*
X140525000Y-49875000D03*
%TD*%
D14*
%TO.C,C7*%
X95000000Y-35950000D03*
X95000000Y-33450000D03*
%TD*%
D10*
%TO.C,J9*%
X155400000Y-47740000D03*
D11*
X155400000Y-45200000D03*
X155400000Y-42660000D03*
X155400000Y-40120000D03*
%TD*%
D14*
%TO.C,C27*%
X61450000Y-45900000D03*
X61450000Y-40900000D03*
%TD*%
%TO.C,C30*%
X191575000Y-60925000D03*
X191575000Y-63425000D03*
%TD*%
D10*
%TO.C,SW1*%
X94985000Y-29100000D03*
D11*
X97525000Y-29100000D03*
X100065000Y-29100000D03*
%TD*%
D14*
%TO.C,C24*%
X60700000Y-59975000D03*
X55700000Y-59975000D03*
%TD*%
D15*
%TO.C,J1*%
X38300000Y-43400000D03*
D16*
X38300000Y-48400000D03*
%TD*%
D17*
%TO.C,J2*%
X42050000Y-30567500D03*
D18*
X36050000Y-30567500D03*
D19*
X39050000Y-35267500D03*
%TD*%
D10*
%TO.C,J23*%
X132700000Y-79900000D03*
D11*
X132700000Y-77360000D03*
X132700000Y-74820000D03*
%TD*%
D10*
%TO.C,J10*%
X197550000Y-39985000D03*
D11*
X197550000Y-42525000D03*
X197550000Y-45065000D03*
%TD*%
D20*
%TO.C,D19*%
X190755000Y-31037500D03*
D21*
X193295000Y-31037500D03*
%TD*%
D10*
%TO.C,JP2*%
X132400000Y-29925000D03*
D11*
X134940000Y-29925000D03*
%TD*%
D10*
%TO.C,J8*%
X174850000Y-106275000D03*
D11*
X177390000Y-106275000D03*
X179930000Y-106275000D03*
X182470000Y-106275000D03*
%TD*%
D10*
%TO.C,J18*%
X132800000Y-69375000D03*
D11*
X132800000Y-66835000D03*
X132800000Y-64295000D03*
X132800000Y-61755000D03*
X132800000Y-59215000D03*
X132800000Y-56675000D03*
X132800000Y-54135000D03*
X132800000Y-51595000D03*
%TD*%
D20*
%TO.C,D18*%
X177430000Y-31037500D03*
D21*
X179970000Y-31037500D03*
%TD*%
D10*
%TO.C,J7*%
X147760000Y-106200000D03*
D11*
X150300000Y-106200000D03*
%TD*%
D10*
%TO.C,J20*%
X66000000Y-52820000D03*
D11*
X66000000Y-55360000D03*
X66000000Y-57900000D03*
%TD*%
D10*
%TO.C,J4*%
X88100000Y-106175000D03*
D11*
X90640000Y-106175000D03*
%TD*%
D22*
%TO.C,Y4*%
X187975000Y-55000000D03*
X187975000Y-50100000D03*
%TD*%
D10*
%TO.C,J16*%
X89675000Y-29100000D03*
D11*
X87135000Y-29100000D03*
X84595000Y-29100000D03*
X82055000Y-29100000D03*
X79515000Y-29100000D03*
X76975000Y-29100000D03*
X74435000Y-29100000D03*
X71895000Y-29100000D03*
%TD*%
D10*
%TO.C,J17*%
X65975000Y-62045000D03*
D11*
X65975000Y-64585000D03*
X65975000Y-67125000D03*
X65975000Y-69665000D03*
X65975000Y-72205000D03*
X65975000Y-74745000D03*
X65975000Y-77285000D03*
X65975000Y-79825000D03*
%TD*%
D20*
%TO.C,SW3*%
X149000000Y-65025000D03*
D21*
X154000000Y-65025000D03*
X149000000Y-71025000D03*
X154000000Y-71025000D03*
%TD*%
D10*
%TO.C,J13*%
X69915000Y-85000000D03*
D11*
X72455000Y-85000000D03*
X74995000Y-85000000D03*
X77535000Y-85000000D03*
X80075000Y-85000000D03*
X82615000Y-85000000D03*
X85155000Y-85000000D03*
X87695000Y-85000000D03*
%TD*%
D14*
%TO.C,C6*%
X138525000Y-70600000D03*
X141025000Y-70600000D03*
%TD*%
%TO.C,C8*%
X121800000Y-52525000D03*
X124300000Y-52525000D03*
%TD*%
D10*
%TO.C,J19*%
X56700000Y-93735000D03*
D11*
X56700000Y-96275000D03*
X56700000Y-98815000D03*
%TD*%
D10*
%TO.C,J12*%
X132925000Y-47425000D03*
D11*
X132925000Y-44885000D03*
X132925000Y-42345000D03*
X132925000Y-39805000D03*
X132925000Y-37265000D03*
X132925000Y-34725000D03*
%TD*%
D23*
%TO.C,BT1*%
X46800000Y-63667546D03*
D24*
X46800000Y-84467546D03*
%TD*%
D14*
%TO.C,C37*%
X179175000Y-72600000D03*
X179175000Y-75100000D03*
%TD*%
D20*
%TO.C,SW2*%
X69247500Y-98772500D03*
D21*
X64247500Y-98772500D03*
X69247500Y-92772500D03*
X64247500Y-92772500D03*
%TD*%
D10*
%TO.C,J5*%
X107900000Y-106300000D03*
D11*
X110440000Y-106300000D03*
%TD*%
D22*
%TO.C,Y1*%
X79575000Y-54325000D03*
X79575000Y-49425000D03*
%TD*%
D10*
%TO.C,J21*%
X37950000Y-93445000D03*
D11*
X37950000Y-95985000D03*
X37950000Y-98525000D03*
%TD*%
D20*
%TO.C,D17*%
X164105000Y-30887500D03*
D21*
X166645000Y-30887500D03*
%TD*%
D14*
%TO.C,C23*%
X51075000Y-32025000D03*
X51075000Y-37025000D03*
%TD*%
D25*
%TO.C,Y2*%
X82125000Y-40875000D03*
X82125000Y-42775000D03*
%TD*%
D14*
%TO.C,C33*%
X195000000Y-70500000D03*
X195000000Y-68000000D03*
%TD*%
D10*
%TO.C,JP1*%
X140275000Y-80775000D03*
D11*
X140275000Y-78235000D03*
%TD*%
D10*
%TO.C,J6*%
X127700000Y-106300000D03*
D11*
X130240000Y-106300000D03*
%TD*%
D10*
%TO.C,J22*%
X123345000Y-84825000D03*
D11*
X125885000Y-84825000D03*
X128425000Y-84825000D03*
%TD*%
D10*
%TO.C,J14*%
X100075000Y-84675000D03*
D11*
X102615000Y-84675000D03*
X105155000Y-84675000D03*
X107695000Y-84675000D03*
X110235000Y-84675000D03*
X112775000Y-84675000D03*
X115315000Y-84675000D03*
X117855000Y-84675000D03*
%TD*%
D14*
%TO.C,C35*%
X157050000Y-54100000D03*
X154550000Y-54100000D03*
%TD*%
M02*
