%TF.GenerationSoftware,KiCad,Pcbnew,9.0.3*%
%TF.CreationDate,2025-08-27T16:03:02+05:30*%
%TF.ProjectId,iDex_PQ_PCB_V1,69446578-5f50-4515-9f50-43425f56312e,rev?*%
%TF.SameCoordinates,Original*%
%TF.FileFunction,Plated,1,2,PTH,Mixed*%
%TF.FilePolarity,Positive*%
%FSLAX46Y46*%
G04 Gerber Fmt 4.6, Leading zero omitted, Abs format (unit mm)*
G04 Created by KiCad (PCBNEW 9.0.3) date 2025-08-27 16:03:02*
%MOMM*%
%LPD*%
G01*
G04 APERTURE LIST*
%TA.AperFunction,ViaDrill*%
%ADD10C,0.400000*%
%TD*%
%TA.AperFunction,ComponentDrill*%
%ADD11C,0.500000*%
%TD*%
G04 aperture for slot hole*
%TA.AperFunction,ComponentDrill*%
%ADD12C,1.000000*%
%TD*%
%TA.AperFunction,ComponentDrill*%
%ADD13C,1.000000*%
%TD*%
%TA.AperFunction,ComponentDrill*%
%ADD14C,1.300000*%
%TD*%
G04 APERTURE END LIST*
D10*
X53375000Y-92650000D03*
X57237500Y-46187500D03*
X75675000Y-56275000D03*
X77600000Y-70800000D03*
X81700000Y-58100000D03*
X82900000Y-90300000D03*
X83525000Y-66700000D03*
X87100000Y-62000000D03*
X89950000Y-53900000D03*
X90025000Y-42000000D03*
X90900000Y-90300000D03*
X91825000Y-54425000D03*
X92400000Y-78200000D03*
X93075000Y-44900000D03*
X93800000Y-46500000D03*
X94700000Y-59275000D03*
X97525000Y-42475000D03*
X98400000Y-80800000D03*
X100100000Y-90300000D03*
X104075000Y-59275000D03*
X104075000Y-63275000D03*
X105900000Y-80800000D03*
X106025000Y-37450000D03*
X109600000Y-32700000D03*
X110200000Y-90300000D03*
X112675000Y-74725000D03*
X113000000Y-44900000D03*
X114000000Y-43350000D03*
X115100000Y-33400000D03*
X116575000Y-72900000D03*
X116800000Y-54575000D03*
X119500000Y-65000000D03*
X121000000Y-90300000D03*
X124825000Y-65775000D03*
X130700000Y-92200000D03*
X140550000Y-62900000D03*
X140900000Y-92200000D03*
X147600000Y-61775000D03*
X149800000Y-76000000D03*
X150800000Y-90400000D03*
X152900000Y-31900000D03*
X154550000Y-57400000D03*
X158600000Y-86600000D03*
X161900000Y-43900000D03*
X164525000Y-54275000D03*
X164800000Y-39100000D03*
X166675000Y-39500000D03*
X169600000Y-44075000D03*
X175050000Y-48250000D03*
X179800000Y-43400000D03*
X179900000Y-39400000D03*
X180800000Y-56300000D03*
X187175000Y-39450000D03*
X192500000Y-47900000D03*
X192500000Y-52800000D03*
X199200000Y-31800000D03*
X202400000Y-50100000D03*
D11*
%TO.C,Y2*%
X82125000Y-40875000D03*
X82125000Y-42775000D03*
D12*
%TO.C,J2*%
X36050000Y-31567500D02*
X36050000Y-29567500D01*
D13*
%TO.C,J21*%
X37950000Y-93445000D03*
X37950000Y-95985000D03*
X37950000Y-98525000D03*
%TO.C,J1*%
X38300000Y-43400000D03*
X38300000Y-48400000D03*
D12*
%TO.C,J2*%
X40050000Y-35267500D02*
X38050000Y-35267500D01*
X42050000Y-31567500D02*
X42050000Y-29567500D01*
D13*
%TO.C,BT1*%
X46800000Y-63667546D03*
X46800000Y-84467546D03*
%TO.C,C23*%
X51075000Y-32025000D03*
X51075000Y-37025000D03*
%TO.C,C24*%
X55700000Y-59975000D03*
%TO.C,J19*%
X56700000Y-93735000D03*
X56700000Y-96275000D03*
X56700000Y-98815000D03*
%TO.C,C24*%
X60700000Y-59975000D03*
%TO.C,C27*%
X61450000Y-40900000D03*
X61450000Y-45900000D03*
%TO.C,SW2*%
X64247500Y-92772500D03*
X64247500Y-98772500D03*
%TO.C,J17*%
X65975000Y-62045000D03*
X65975000Y-64585000D03*
X65975000Y-67125000D03*
X65975000Y-69665000D03*
X65975000Y-72205000D03*
X65975000Y-74745000D03*
X65975000Y-77285000D03*
X65975000Y-79825000D03*
%TO.C,J20*%
X66000000Y-52820000D03*
X66000000Y-55360000D03*
X66000000Y-57900000D03*
%TO.C,SW2*%
X69247500Y-92772500D03*
X69247500Y-98772500D03*
%TO.C,J13*%
X69915000Y-85000000D03*
%TO.C,J16*%
X71895000Y-29100000D03*
%TO.C,J13*%
X72455000Y-85000000D03*
%TO.C,J16*%
X74435000Y-29100000D03*
%TO.C,J13*%
X74995000Y-85000000D03*
%TO.C,J16*%
X76975000Y-29100000D03*
%TO.C,J13*%
X77535000Y-85000000D03*
%TO.C,J16*%
X79515000Y-29100000D03*
%TO.C,Y1*%
X79575000Y-49425000D03*
X79575000Y-54325000D03*
%TO.C,J13*%
X80075000Y-85000000D03*
%TO.C,J16*%
X82055000Y-29100000D03*
%TO.C,J13*%
X82615000Y-85000000D03*
%TO.C,J16*%
X84595000Y-29100000D03*
%TO.C,J13*%
X85155000Y-85000000D03*
%TO.C,J16*%
X87135000Y-29100000D03*
%TO.C,J13*%
X87695000Y-85000000D03*
%TO.C,J4*%
X88100000Y-106175000D03*
%TO.C,J16*%
X89675000Y-29100000D03*
%TO.C,J4*%
X90640000Y-106175000D03*
%TO.C,SW1*%
X94985000Y-29100000D03*
%TO.C,C7*%
X95000000Y-33450000D03*
X95000000Y-35950000D03*
%TO.C,SW1*%
X97525000Y-29100000D03*
X100065000Y-29100000D03*
%TO.C,J14*%
X100075000Y-84675000D03*
X102615000Y-84675000D03*
%TO.C,J15*%
X105070000Y-29000000D03*
%TO.C,J14*%
X105155000Y-84675000D03*
%TO.C,J15*%
X107610000Y-29000000D03*
%TO.C,J14*%
X107695000Y-84675000D03*
%TO.C,J5*%
X107900000Y-106300000D03*
%TO.C,J15*%
X110150000Y-29000000D03*
%TO.C,J14*%
X110235000Y-84675000D03*
%TO.C,J5*%
X110440000Y-106300000D03*
%TO.C,J15*%
X112690000Y-29000000D03*
%TO.C,J14*%
X112775000Y-84675000D03*
%TO.C,J15*%
X115230000Y-29000000D03*
%TO.C,J14*%
X115315000Y-84675000D03*
%TO.C,J15*%
X117770000Y-29000000D03*
%TO.C,J14*%
X117855000Y-84675000D03*
%TO.C,J15*%
X120310000Y-29000000D03*
%TO.C,C8*%
X121800000Y-52525000D03*
%TO.C,J15*%
X122850000Y-29000000D03*
%TO.C,J22*%
X123345000Y-84825000D03*
%TO.C,C8*%
X124300000Y-52525000D03*
%TO.C,J22*%
X125885000Y-84825000D03*
%TO.C,J6*%
X127700000Y-106300000D03*
%TO.C,J22*%
X128425000Y-84825000D03*
%TO.C,J6*%
X130240000Y-106300000D03*
%TO.C,JP2*%
X132400000Y-29925000D03*
%TO.C,J23*%
X132700000Y-74820000D03*
X132700000Y-77360000D03*
X132700000Y-79900000D03*
%TO.C,J18*%
X132800000Y-51595000D03*
X132800000Y-54135000D03*
X132800000Y-56675000D03*
X132800000Y-59215000D03*
X132800000Y-61755000D03*
X132800000Y-64295000D03*
X132800000Y-66835000D03*
X132800000Y-69375000D03*
%TO.C,J12*%
X132925000Y-34725000D03*
X132925000Y-37265000D03*
X132925000Y-39805000D03*
X132925000Y-42345000D03*
X132925000Y-44885000D03*
X132925000Y-47425000D03*
%TO.C,JP2*%
X134940000Y-29925000D03*
%TO.C,C6*%
X138525000Y-70600000D03*
%TO.C,JP1*%
X140275000Y-78235000D03*
X140275000Y-80775000D03*
%TO.C,J3*%
X140525000Y-39715000D03*
X140525000Y-42255000D03*
X140525000Y-44795000D03*
X140525000Y-47335000D03*
X140525000Y-49875000D03*
%TO.C,C6*%
X141025000Y-70600000D03*
%TO.C,J11*%
X141860000Y-28000000D03*
X144400000Y-28000000D03*
%TO.C,J7*%
X147760000Y-106200000D03*
%TO.C,SW3*%
X149000000Y-65025000D03*
X149000000Y-71025000D03*
%TO.C,J7*%
X150300000Y-106200000D03*
%TO.C,SW3*%
X154000000Y-65025000D03*
X154000000Y-71025000D03*
%TO.C,C35*%
X154550000Y-54100000D03*
%TO.C,J9*%
X155400000Y-40120000D03*
X155400000Y-42660000D03*
X155400000Y-45200000D03*
X155400000Y-47740000D03*
%TO.C,C35*%
X157050000Y-54100000D03*
%TO.C,D17*%
X164105000Y-30887500D03*
X166645000Y-30887500D03*
%TO.C,D18*%
X177430000Y-31037500D03*
%TO.C,C37*%
X179175000Y-72600000D03*
X179175000Y-75100000D03*
%TO.C,D18*%
X179970000Y-31037500D03*
%TO.C,Y4*%
X187975000Y-50100000D03*
X187975000Y-55000000D03*
%TO.C,D19*%
X190755000Y-31037500D03*
%TO.C,C30*%
X191575000Y-60925000D03*
X191575000Y-63425000D03*
%TO.C,D19*%
X193295000Y-31037500D03*
%TO.C,C33*%
X195000000Y-68000000D03*
X195000000Y-70500000D03*
%TO.C,J10*%
X197550000Y-39985000D03*
X197550000Y-42525000D03*
X197550000Y-45065000D03*
D14*
%TO.C,J8*%
X173700000Y-104500000D03*
X178700000Y-104500000D03*
X183700000Y-104500000D03*
X188700000Y-104500000D03*
M02*
