%TF.GenerationSoftware,KiCad,Pcbnew,9.0.3*%
%TF.CreationDate,2025-08-27T16:03:00+05:30*%
%TF.ProjectId,iDex_PQ_PCB_V1,69446578-5f50-4515-9f50-43425f56312e,rev?*%
%TF.SameCoordinates,Original*%
%TF.FileFunction,Legend,Bot*%
%TF.FilePolarity,Positive*%
%FSLAX46Y46*%
G04 Gerber Fmt 4.6, Leading zero omitted, Abs format (unit mm)*
G04 Created by KiCad (PCBNEW 9.0.3) date 2025-08-27 16:03:00*
%MOMM*%
%LPD*%
G01*
G04 APERTURE LIST*
%ADD10C,0.100000*%
G04 APERTURE END LIST*
D10*
X202262782Y-106548609D02*
X202119925Y-106596228D01*
X202119925Y-106596228D02*
X202072306Y-106643847D01*
X202072306Y-106643847D02*
X202024687Y-106739085D01*
X202024687Y-106739085D02*
X202024687Y-106881942D01*
X202024687Y-106881942D02*
X202072306Y-106977180D01*
X202072306Y-106977180D02*
X202119925Y-107024800D01*
X202119925Y-107024800D02*
X202215163Y-107072419D01*
X202215163Y-107072419D02*
X202596115Y-107072419D01*
X202596115Y-107072419D02*
X202596115Y-106072419D01*
X202596115Y-106072419D02*
X202262782Y-106072419D01*
X202262782Y-106072419D02*
X202167544Y-106120038D01*
X202167544Y-106120038D02*
X202119925Y-106167657D01*
X202119925Y-106167657D02*
X202072306Y-106262895D01*
X202072306Y-106262895D02*
X202072306Y-106358133D01*
X202072306Y-106358133D02*
X202119925Y-106453371D01*
X202119925Y-106453371D02*
X202167544Y-106500990D01*
X202167544Y-106500990D02*
X202262782Y-106548609D01*
X202262782Y-106548609D02*
X202596115Y-106548609D01*
X201405639Y-106072419D02*
X201215163Y-106072419D01*
X201215163Y-106072419D02*
X201119925Y-106120038D01*
X201119925Y-106120038D02*
X201024687Y-106215276D01*
X201024687Y-106215276D02*
X200977068Y-106405752D01*
X200977068Y-106405752D02*
X200977068Y-106739085D01*
X200977068Y-106739085D02*
X201024687Y-106929561D01*
X201024687Y-106929561D02*
X201119925Y-107024800D01*
X201119925Y-107024800D02*
X201215163Y-107072419D01*
X201215163Y-107072419D02*
X201405639Y-107072419D01*
X201405639Y-107072419D02*
X201500877Y-107024800D01*
X201500877Y-107024800D02*
X201596115Y-106929561D01*
X201596115Y-106929561D02*
X201643734Y-106739085D01*
X201643734Y-106739085D02*
X201643734Y-106405752D01*
X201643734Y-106405752D02*
X201596115Y-106215276D01*
X201596115Y-106215276D02*
X201500877Y-106120038D01*
X201500877Y-106120038D02*
X201405639Y-106072419D01*
X200691353Y-106072419D02*
X200119925Y-106072419D01*
X200405639Y-107072419D02*
X200405639Y-106072419D01*
M02*
