%TF.GenerationSoftware,KiCad,Pcbnew,9.0.3*%
%TF.CreationDate,2025-08-27T15:10:51+05:30*%
%TF.ProjectId,iDex_PQ_PCB_V1,69446578-5f50-4515-9f50-43425f56312e,rev?*%
%TF.SameCoordinates,Original*%
%TF.FileFunction,Paste,Top*%
%TF.FilePolarity,Positive*%
%FSLAX46Y46*%
G04 Gerber Fmt 4.6, Leading zero omitted, Abs format (unit mm)*
G04 Created by KiCad (PCBNEW 9.0.3) date 2025-08-27 15:10:51*
%MOMM*%
%LPD*%
G01*
G04 APERTURE LIST*
G04 Aperture macros list*
%AMRoundRect*
0 Rectangle with rounded corners*
0 $1 Rounding radius*
0 $2 $3 $4 $5 $6 $7 $8 $9 X,Y pos of 4 corners*
0 Add a 4 corners polygon primitive as box body*
4,1,4,$2,$3,$4,$5,$6,$7,$8,$9,$2,$3,0*
0 Add four circle primitives for the rounded corners*
1,1,$1+$1,$2,$3*
1,1,$1+$1,$4,$5*
1,1,$1+$1,$6,$7*
1,1,$1+$1,$8,$9*
0 Add four rect primitives between the rounded corners*
20,1,$1+$1,$2,$3,$4,$5,0*
20,1,$1+$1,$4,$5,$6,$7,0*
20,1,$1+$1,$6,$7,$8,$9,0*
20,1,$1+$1,$8,$9,$2,$3,0*%
G04 Aperture macros list end*
%ADD10C,0.000000*%
%ADD11R,0.762000X0.254000*%
%ADD12R,0.254000X0.762000*%
%ADD13R,4.699000X4.699000*%
%ADD14RoundRect,0.250000X0.350000X0.450000X-0.350000X0.450000X-0.350000X-0.450000X0.350000X-0.450000X0*%
%ADD15RoundRect,0.250000X0.450000X-0.350000X0.450000X0.350000X-0.450000X0.350000X-0.450000X-0.350000X0*%
%ADD16RoundRect,0.250000X0.325000X0.450000X-0.325000X0.450000X-0.325000X-0.450000X0.325000X-0.450000X0*%
%ADD17RoundRect,0.250000X0.450000X-0.325000X0.450000X0.325000X-0.450000X0.325000X-0.450000X-0.325000X0*%
%ADD18RoundRect,0.150000X-0.150000X-0.200000X0.150000X-0.200000X0.150000X0.200000X-0.150000X0.200000X0*%
%ADD19RoundRect,0.250000X-0.337500X-0.475000X0.337500X-0.475000X0.337500X0.475000X-0.337500X0.475000X0*%
%ADD20RoundRect,0.250000X0.337500X0.475000X-0.337500X0.475000X-0.337500X-0.475000X0.337500X-0.475000X0*%
%ADD21RoundRect,0.250000X-0.450000X0.350000X-0.450000X-0.350000X0.450000X-0.350000X0.450000X0.350000X0*%
%ADD22RoundRect,0.150000X-0.587500X-0.150000X0.587500X-0.150000X0.587500X0.150000X-0.587500X0.150000X0*%
%ADD23RoundRect,0.250000X-0.475000X0.337500X-0.475000X-0.337500X0.475000X-0.337500X0.475000X0.337500X0*%
%ADD24RoundRect,0.250000X0.475000X-0.337500X0.475000X0.337500X-0.475000X0.337500X-0.475000X-0.337500X0*%
%ADD25RoundRect,0.250000X-0.325000X-0.650000X0.325000X-0.650000X0.325000X0.650000X-0.325000X0.650000X0*%
%ADD26RoundRect,0.150000X0.150000X0.200000X-0.150000X0.200000X-0.150000X-0.200000X0.150000X-0.200000X0*%
%ADD27RoundRect,0.150000X-0.825000X-0.150000X0.825000X-0.150000X0.825000X0.150000X-0.825000X0.150000X0*%
%ADD28RoundRect,0.250000X-0.350000X-0.450000X0.350000X-0.450000X0.350000X0.450000X-0.350000X0.450000X0*%
%ADD29RoundRect,0.075000X-0.725000X-0.075000X0.725000X-0.075000X0.725000X0.075000X-0.725000X0.075000X0*%
%ADD30RoundRect,0.075000X-0.075000X-0.725000X0.075000X-0.725000X0.075000X0.725000X-0.075000X0.725000X0*%
%ADD31RoundRect,0.250000X0.412500X0.650000X-0.412500X0.650000X-0.412500X-0.650000X0.412500X-0.650000X0*%
%ADD32RoundRect,0.375000X-0.375000X0.625000X-0.375000X-0.625000X0.375000X-0.625000X0.375000X0.625000X0*%
%ADD33RoundRect,0.500000X-1.400000X0.500000X-1.400000X-0.500000X1.400000X-0.500000X1.400000X0.500000X0*%
%ADD34RoundRect,0.250000X0.650000X-0.325000X0.650000X0.325000X-0.650000X0.325000X-0.650000X-0.325000X0*%
%ADD35RoundRect,0.250000X-0.412500X-0.650000X0.412500X-0.650000X0.412500X0.650000X-0.412500X0.650000X0*%
%ADD36RoundRect,0.250000X-0.650000X0.412500X-0.650000X-0.412500X0.650000X-0.412500X0.650000X0.412500X0*%
%ADD37RoundRect,0.250000X-2.750000X1.000000X-2.750000X-1.000000X2.750000X-1.000000X2.750000X1.000000X0*%
%ADD38RoundRect,0.375000X-0.625000X-0.375000X0.625000X-0.375000X0.625000X0.375000X-0.625000X0.375000X0*%
%ADD39RoundRect,0.500000X-0.500000X-1.400000X0.500000X-1.400000X0.500000X1.400000X-0.500000X1.400000X0*%
G04 APERTURE END LIST*
D10*
%TO.C,U1*%
G36*
X173038634Y-57316771D02*
G01*
X171672300Y-57316771D01*
X171672300Y-55950437D01*
X173038634Y-55950437D01*
X173038634Y-57316771D01*
G37*
G36*
X173038634Y-58883104D02*
G01*
X171672300Y-58883104D01*
X171672300Y-57516770D01*
X173038634Y-57516770D01*
X173038634Y-58883104D01*
G37*
G36*
X173038634Y-60449437D02*
G01*
X171672300Y-60449437D01*
X171672300Y-59083103D01*
X173038634Y-59083103D01*
X173038634Y-60449437D01*
G37*
G36*
X174604967Y-57316771D02*
G01*
X173238633Y-57316771D01*
X173238633Y-55950437D01*
X174604967Y-55950437D01*
X174604967Y-57316771D01*
G37*
G36*
X174604967Y-58883104D02*
G01*
X173238633Y-58883104D01*
X173238633Y-57516770D01*
X174604967Y-57516770D01*
X174604967Y-58883104D01*
G37*
G36*
X174604967Y-60449437D02*
G01*
X173238633Y-60449437D01*
X173238633Y-59083103D01*
X174604967Y-59083103D01*
X174604967Y-60449437D01*
G37*
G36*
X176171300Y-57316771D02*
G01*
X174804966Y-57316771D01*
X174804966Y-55950437D01*
X176171300Y-55950437D01*
X176171300Y-57316771D01*
G37*
G36*
X176171300Y-58883104D02*
G01*
X174804966Y-58883104D01*
X174804966Y-57516770D01*
X176171300Y-57516770D01*
X176171300Y-58883104D01*
G37*
G36*
X176171300Y-60449437D02*
G01*
X174804966Y-60449437D01*
X174804966Y-59083103D01*
X176171300Y-59083103D01*
X176171300Y-60449437D01*
G37*
%TD*%
D11*
%TO.C,U1*%
X170950000Y-55949370D03*
X170950000Y-56449496D03*
X170950000Y-56949622D03*
X170950000Y-57449748D03*
X170950000Y-57949874D03*
X170950000Y-58450000D03*
X170950000Y-58950126D03*
X170950000Y-59450252D03*
X170950000Y-59950378D03*
X170950000Y-60450504D03*
D12*
X171671233Y-61171737D03*
X172171359Y-61171737D03*
X172671485Y-61171737D03*
X173171611Y-61171737D03*
X173671737Y-61171737D03*
X174171863Y-61171737D03*
X174671989Y-61171737D03*
X175172115Y-61171737D03*
X175672241Y-61171737D03*
X176172367Y-61171737D03*
D11*
X176893600Y-60450504D03*
X176893600Y-59950378D03*
X176893600Y-59450252D03*
X176893600Y-58950126D03*
X176893600Y-58450000D03*
X176893600Y-57949874D03*
X176893600Y-57449748D03*
X176893600Y-56949622D03*
X176893600Y-56449496D03*
X176893600Y-55949370D03*
D12*
X176172367Y-55228137D03*
X175672241Y-55228137D03*
X175172115Y-55228137D03*
X174671989Y-55228137D03*
X174171863Y-55228137D03*
X173671737Y-55228137D03*
X173171611Y-55228137D03*
X172671485Y-55228137D03*
X172171359Y-55228137D03*
X171671233Y-55228137D03*
D13*
X173921800Y-58199937D03*
%TD*%
D14*
%TO.C,R48*%
X152400000Y-29800000D03*
X150400000Y-29800000D03*
%TD*%
D15*
%TO.C,R47*%
X38000000Y-57600000D03*
X38000000Y-55600000D03*
%TD*%
D16*
%TO.C,D21*%
X157825000Y-29800000D03*
X155775000Y-29800000D03*
%TD*%
D17*
%TO.C,D20*%
X37900000Y-62725000D03*
X37900000Y-60675000D03*
%TD*%
D18*
%TO.C,D15*%
X147470000Y-97500000D03*
X146070000Y-97500000D03*
%TD*%
D19*
%TO.C,C52*%
X146147500Y-92575000D03*
X148222500Y-92575000D03*
%TD*%
D20*
%TO.C,C29*%
X162387500Y-63175000D03*
X160312500Y-63175000D03*
%TD*%
D21*
%TO.C,R1*%
X97775000Y-44000000D03*
X97775000Y-46000000D03*
%TD*%
D22*
%TO.C,Q2*%
X174537500Y-35937500D03*
X174537500Y-37837500D03*
X176412500Y-36887500D03*
%TD*%
D23*
%TO.C,C11*%
X74650000Y-47062500D03*
X74650000Y-49137500D03*
%TD*%
D18*
%TO.C,D8*%
X110860000Y-99525000D03*
X109460000Y-99525000D03*
%TD*%
D15*
%TO.C,R31*%
X187150000Y-87200000D03*
X187150000Y-85200000D03*
%TD*%
D24*
%TO.C,C56*%
X163975000Y-92362500D03*
X163975000Y-90287500D03*
%TD*%
%TO.C,C62*%
X190550000Y-91700000D03*
X190550000Y-89625000D03*
%TD*%
D23*
%TO.C,C3*%
X105900000Y-76812500D03*
X105900000Y-78887500D03*
%TD*%
D25*
%TO.C,FB6*%
X193475000Y-106300000D03*
X196425000Y-106300000D03*
%TD*%
D19*
%TO.C,C32*%
X183812500Y-61800000D03*
X185887500Y-61800000D03*
%TD*%
D24*
%TO.C,C50*%
X141185000Y-99162500D03*
X141185000Y-97087500D03*
%TD*%
D23*
%TO.C,C5*%
X115675000Y-74637500D03*
X115675000Y-76712500D03*
%TD*%
D15*
%TO.C,R46*%
X172550000Y-49075000D03*
X172550000Y-47075000D03*
%TD*%
D26*
%TO.C,D13*%
X146120000Y-99200000D03*
X147520000Y-99200000D03*
%TD*%
D27*
%TO.C,U5*%
X45775000Y-94395000D03*
X45775000Y-95665000D03*
X45775000Y-96935000D03*
X45775000Y-98205000D03*
X50725000Y-98205000D03*
X50725000Y-96935000D03*
X50725000Y-95665000D03*
X50725000Y-94395000D03*
%TD*%
D15*
%TO.C,R32*%
X177250000Y-87175000D03*
X177250000Y-85175000D03*
%TD*%
D28*
%TO.C,R2*%
X74925000Y-105600000D03*
X76925000Y-105600000D03*
%TD*%
%TO.C,R21*%
X169230000Y-95775000D03*
X171230000Y-95775000D03*
%TD*%
D21*
%TO.C,R42*%
X179950000Y-34850000D03*
X179950000Y-36850000D03*
%TD*%
D15*
%TO.C,R37*%
X201600000Y-87100000D03*
X201600000Y-85100000D03*
%TD*%
D20*
%TO.C,C58*%
X184137500Y-85225000D03*
X182062500Y-85225000D03*
%TD*%
D18*
%TO.C,D12*%
X130560000Y-99050000D03*
X129160000Y-99050000D03*
%TD*%
D23*
%TO.C,C51*%
X155210000Y-97237500D03*
X155210000Y-99312500D03*
%TD*%
D26*
%TO.C,D9*%
X126010000Y-99050000D03*
X127410000Y-99050000D03*
%TD*%
D23*
%TO.C,C39*%
X96210000Y-97462500D03*
X96210000Y-99537500D03*
%TD*%
D19*
%TO.C,C40*%
X86522500Y-92800000D03*
X88597500Y-92800000D03*
%TD*%
D28*
%TO.C,R11*%
X104010000Y-94875000D03*
X106010000Y-94875000D03*
%TD*%
%TO.C,R29*%
X182180000Y-90775000D03*
X184180000Y-90775000D03*
%TD*%
D14*
%TO.C,R34*%
X197280000Y-92725000D03*
X195280000Y-92725000D03*
%TD*%
D23*
%TO.C,C2*%
X94150000Y-76012500D03*
X94150000Y-78087500D03*
%TD*%
D28*
%TO.C,R23*%
X169130000Y-90975000D03*
X171130000Y-90975000D03*
%TD*%
D19*
%TO.C,C21*%
X193737500Y-50125000D03*
X195812500Y-50125000D03*
%TD*%
D21*
%TO.C,R44*%
X193275000Y-34937500D03*
X193275000Y-36937500D03*
%TD*%
D15*
%TO.C,R25*%
X174450000Y-87375000D03*
X174450000Y-85375000D03*
%TD*%
D29*
%TO.C,U2*%
X92025000Y-56250000D03*
X92025000Y-56750000D03*
X92025000Y-57250000D03*
X92025000Y-57750000D03*
X92025000Y-58250000D03*
X92025000Y-58750000D03*
X92025000Y-59250000D03*
X92025000Y-59750000D03*
X92025000Y-60250000D03*
X92025000Y-60750000D03*
X92025000Y-61250000D03*
X92025000Y-61750000D03*
X92025000Y-62250000D03*
X92025000Y-62750000D03*
X92025000Y-63250000D03*
X92025000Y-63750000D03*
X92025000Y-64250000D03*
X92025000Y-64750000D03*
X92025000Y-65250000D03*
X92025000Y-65750000D03*
X92025000Y-66250000D03*
X92025000Y-66750000D03*
X92025000Y-67250000D03*
X92025000Y-67750000D03*
X92025000Y-68250000D03*
D30*
X93700000Y-69925000D03*
X94200000Y-69925000D03*
X94700000Y-69925000D03*
X95200000Y-69925000D03*
X95700000Y-69925000D03*
X96200000Y-69925000D03*
X96700000Y-69925000D03*
X97200000Y-69925000D03*
X97700000Y-69925000D03*
X98200000Y-69925000D03*
X98700000Y-69925000D03*
X99200000Y-69925000D03*
X99700000Y-69925000D03*
X100200000Y-69925000D03*
X100700000Y-69925000D03*
X101200000Y-69925000D03*
X101700000Y-69925000D03*
X102200000Y-69925000D03*
X102700000Y-69925000D03*
X103200000Y-69925000D03*
X103700000Y-69925000D03*
X104200000Y-69925000D03*
X104700000Y-69925000D03*
X105200000Y-69925000D03*
X105700000Y-69925000D03*
D29*
X107375000Y-68250000D03*
X107375000Y-67750000D03*
X107375000Y-67250000D03*
X107375000Y-66750000D03*
X107375000Y-66250000D03*
X107375000Y-65750000D03*
X107375000Y-65250000D03*
X107375000Y-64750000D03*
X107375000Y-64250000D03*
X107375000Y-63750000D03*
X107375000Y-63250000D03*
X107375000Y-62750000D03*
X107375000Y-62250000D03*
X107375000Y-61750000D03*
X107375000Y-61250000D03*
X107375000Y-60750000D03*
X107375000Y-60250000D03*
X107375000Y-59750000D03*
X107375000Y-59250000D03*
X107375000Y-58750000D03*
X107375000Y-58250000D03*
X107375000Y-57750000D03*
X107375000Y-57250000D03*
X107375000Y-56750000D03*
X107375000Y-56250000D03*
D30*
X105700000Y-54575000D03*
X105200000Y-54575000D03*
X104700000Y-54575000D03*
X104200000Y-54575000D03*
X103700000Y-54575000D03*
X103200000Y-54575000D03*
X102700000Y-54575000D03*
X102200000Y-54575000D03*
X101700000Y-54575000D03*
X101200000Y-54575000D03*
X100700000Y-54575000D03*
X100200000Y-54575000D03*
X99700000Y-54575000D03*
X99200000Y-54575000D03*
X98700000Y-54575000D03*
X98200000Y-54575000D03*
X97700000Y-54575000D03*
X97200000Y-54575000D03*
X96700000Y-54575000D03*
X96200000Y-54575000D03*
X95700000Y-54575000D03*
X95200000Y-54575000D03*
X94700000Y-54575000D03*
X94200000Y-54575000D03*
X93700000Y-54575000D03*
%TD*%
D31*
%TO.C,C26*%
X60362500Y-51325000D03*
X57237500Y-51325000D03*
%TD*%
D28*
%TO.C,R18*%
X151710000Y-102050000D03*
X153710000Y-102050000D03*
%TD*%
D14*
%TO.C,R28*%
X184230000Y-93125000D03*
X182230000Y-93125000D03*
%TD*%
%TO.C,R45*%
X168975000Y-49775000D03*
X166975000Y-49775000D03*
%TD*%
D28*
%TO.C,R3*%
X149475000Y-59000000D03*
X151475000Y-59000000D03*
%TD*%
D20*
%TO.C,C13*%
X80062500Y-38450000D03*
X77987500Y-38450000D03*
%TD*%
D19*
%TO.C,C44*%
X105937500Y-92422500D03*
X108012500Y-92422500D03*
%TD*%
D28*
%TO.C,R33*%
X195230000Y-94975000D03*
X197230000Y-94975000D03*
%TD*%
D32*
%TO.C,U4*%
X64187500Y-28825000D03*
X61887500Y-28825000D03*
D33*
X61887500Y-35125000D03*
D32*
X59587500Y-28825000D03*
%TD*%
D20*
%TO.C,C19*%
X81862500Y-70850000D03*
X79787500Y-70850000D03*
%TD*%
D24*
%TO.C,C60*%
X201625000Y-91662500D03*
X201625000Y-89587500D03*
%TD*%
D28*
%TO.C,R16*%
X131375000Y-95025000D03*
X133375000Y-95025000D03*
%TD*%
D19*
%TO.C,C15*%
X115837500Y-53325000D03*
X117912500Y-53325000D03*
%TD*%
D28*
%TO.C,R10*%
X111625000Y-102125000D03*
X113625000Y-102125000D03*
%TD*%
D19*
%TO.C,C45*%
X110450000Y-92422500D03*
X112525000Y-92422500D03*
%TD*%
D28*
%TO.C,R20*%
X151160000Y-94800000D03*
X153160000Y-94800000D03*
%TD*%
D20*
%TO.C,C61*%
X197237500Y-85100000D03*
X195162500Y-85100000D03*
%TD*%
%TO.C,C10*%
X73912500Y-56275000D03*
X71837500Y-56275000D03*
%TD*%
D14*
%TO.C,R36*%
X197280000Y-88025000D03*
X195280000Y-88025000D03*
%TD*%
D23*
%TO.C,C4*%
X99625000Y-77112500D03*
X99625000Y-79187500D03*
%TD*%
D34*
%TO.C,FB4*%
X182280000Y-100950000D03*
X182280000Y-98000000D03*
%TD*%
D24*
%TO.C,C55*%
X174475000Y-92400000D03*
X174475000Y-90325000D03*
%TD*%
D34*
%TO.C,FB5*%
X195230000Y-100350000D03*
X195230000Y-97400000D03*
%TD*%
D14*
%TO.C,R12*%
X113600000Y-94825000D03*
X111600000Y-94825000D03*
%TD*%
D18*
%TO.C,D16*%
X150500000Y-99175000D03*
X149100000Y-99175000D03*
%TD*%
D24*
%TO.C,C57*%
X187150000Y-92225000D03*
X187150000Y-90150000D03*
%TD*%
D28*
%TO.C,R41*%
X170325000Y-36037500D03*
X172325000Y-36037500D03*
%TD*%
D26*
%TO.C,D1*%
X87460000Y-99450000D03*
X88860000Y-99450000D03*
%TD*%
D14*
%TO.C,R30*%
X184180000Y-88375000D03*
X182180000Y-88375000D03*
%TD*%
D26*
%TO.C,D14*%
X149075000Y-97500000D03*
X150475000Y-97500000D03*
%TD*%
D24*
%TO.C,C38*%
X83750000Y-99437500D03*
X83750000Y-97362500D03*
%TD*%
D28*
%TO.C,R35*%
X195280000Y-90375000D03*
X197280000Y-90375000D03*
%TD*%
%TO.C,R27*%
X182230000Y-95575000D03*
X184230000Y-95575000D03*
%TD*%
D23*
%TO.C,C43*%
X115075000Y-97537500D03*
X115075000Y-99612500D03*
%TD*%
D35*
%TO.C,C25*%
X49712500Y-42900000D03*
X52837500Y-42900000D03*
%TD*%
D23*
%TO.C,C14*%
X83925000Y-46637500D03*
X83925000Y-48712500D03*
%TD*%
D28*
%TO.C,R19*%
X144135000Y-94925000D03*
X146135000Y-94925000D03*
%TD*%
D19*
%TO.C,C48*%
X126012500Y-92750000D03*
X128087500Y-92750000D03*
%TD*%
D34*
%TO.C,FB2*%
X169900000Y-75275000D03*
X169900000Y-72325000D03*
%TD*%
D28*
%TO.C,R43*%
X184225000Y-35937500D03*
X186225000Y-35937500D03*
%TD*%
%TO.C,R14*%
X131210000Y-101850000D03*
X133210000Y-101850000D03*
%TD*%
D19*
%TO.C,C22*%
X193712500Y-55025000D03*
X195787500Y-55025000D03*
%TD*%
D24*
%TO.C,C1*%
X111225000Y-47387500D03*
X111225000Y-45312500D03*
%TD*%
D23*
%TO.C,C31*%
X184025000Y-57412500D03*
X184025000Y-59487500D03*
%TD*%
D19*
%TO.C,C20*%
X117850000Y-63325000D03*
X119925000Y-63325000D03*
%TD*%
D23*
%TO.C,C12*%
X74600000Y-52087500D03*
X74600000Y-54162500D03*
%TD*%
%TO.C,C47*%
X135625000Y-96762500D03*
X135625000Y-98837500D03*
%TD*%
D14*
%TO.C,R24*%
X171130000Y-88575000D03*
X169130000Y-88575000D03*
%TD*%
%TO.C,R22*%
X171180000Y-93325000D03*
X169180000Y-93325000D03*
%TD*%
D26*
%TO.C,D3*%
X90860000Y-97650000D03*
X92260000Y-97650000D03*
%TD*%
D36*
%TO.C,C28*%
X68550000Y-41162500D03*
X68550000Y-44287500D03*
%TD*%
D18*
%TO.C,D11*%
X127360000Y-97300000D03*
X125960000Y-97300000D03*
%TD*%
D28*
%TO.C,R39*%
X157325000Y-36337500D03*
X159325000Y-36337500D03*
%TD*%
%TO.C,R13*%
X124360000Y-101800000D03*
X126360000Y-101800000D03*
%TD*%
D26*
%TO.C,D6*%
X109460000Y-97725000D03*
X110860000Y-97725000D03*
%TD*%
D20*
%TO.C,C54*%
X171212500Y-85350000D03*
X169137500Y-85350000D03*
%TD*%
D24*
%TO.C,C42*%
X102375000Y-99487500D03*
X102375000Y-97412500D03*
%TD*%
D28*
%TO.C,R6*%
X91600000Y-102200000D03*
X93600000Y-102200000D03*
%TD*%
%TO.C,R15*%
X124000000Y-95000000D03*
X126000000Y-95000000D03*
%TD*%
%TO.C,R17*%
X144610000Y-102050000D03*
X146610000Y-102050000D03*
%TD*%
%TO.C,R5*%
X85910000Y-102450000D03*
X87910000Y-102450000D03*
%TD*%
D20*
%TO.C,C53*%
X155322500Y-92575000D03*
X153247500Y-92575000D03*
%TD*%
D34*
%TO.C,FB3*%
X169230000Y-101150000D03*
X169230000Y-98200000D03*
%TD*%
D24*
%TO.C,C16*%
X108100000Y-37462500D03*
X108100000Y-35387500D03*
%TD*%
D18*
%TO.C,D4*%
X92260000Y-99450000D03*
X90860000Y-99450000D03*
%TD*%
D23*
%TO.C,C36*%
X174125000Y-72862500D03*
X174125000Y-74937500D03*
%TD*%
%TO.C,C34*%
X161875000Y-56212500D03*
X161875000Y-58287500D03*
%TD*%
D25*
%TO.C,FB1*%
X76975000Y-62000000D03*
X79925000Y-62000000D03*
%TD*%
D37*
%TO.C,Y2*%
X76625000Y-41825000D03*
%TD*%
D24*
%TO.C,C9*%
X112850000Y-37387500D03*
X112850000Y-35312500D03*
%TD*%
D22*
%TO.C,Q1*%
X161937500Y-36337500D03*
X161937500Y-38237500D03*
X163812500Y-37287500D03*
%TD*%
D26*
%TO.C,D10*%
X129110000Y-97350000D03*
X130510000Y-97350000D03*
%TD*%
D19*
%TO.C,C41*%
X91122500Y-92800000D03*
X93197500Y-92800000D03*
%TD*%
D28*
%TO.C,R7*%
X85360000Y-95150000D03*
X87360000Y-95150000D03*
%TD*%
D15*
%TO.C,R38*%
X190525000Y-87150000D03*
X190525000Y-85150000D03*
%TD*%
D20*
%TO.C,C49*%
X135512500Y-92750000D03*
X133437500Y-92750000D03*
%TD*%
D18*
%TO.C,D7*%
X107460000Y-97725000D03*
X106060000Y-97725000D03*
%TD*%
D23*
%TO.C,C59*%
X177225000Y-89787500D03*
X177225000Y-91862500D03*
%TD*%
D18*
%TO.C,D2*%
X88810000Y-97700000D03*
X87410000Y-97700000D03*
%TD*%
D21*
%TO.C,R40*%
X166675000Y-34987500D03*
X166675000Y-36987500D03*
%TD*%
D26*
%TO.C,D5*%
X106060000Y-99525000D03*
X107460000Y-99525000D03*
%TD*%
D20*
%TO.C,C18*%
X85187500Y-59100000D03*
X83112500Y-59100000D03*
%TD*%
D28*
%TO.C,R4*%
X160300000Y-60625000D03*
X162300000Y-60625000D03*
%TD*%
D24*
%TO.C,C17*%
X91625000Y-46287500D03*
X91625000Y-44212500D03*
%TD*%
D14*
%TO.C,R8*%
X94310000Y-95200000D03*
X92310000Y-95200000D03*
%TD*%
D24*
%TO.C,C46*%
X121425000Y-99037500D03*
X121425000Y-96962500D03*
%TD*%
D38*
%TO.C,U3*%
X46800000Y-48700000D03*
X46800000Y-51000000D03*
D39*
X53100000Y-51000000D03*
D38*
X46800000Y-53300000D03*
%TD*%
D28*
%TO.C,R9*%
X104460000Y-102175000D03*
X106460000Y-102175000D03*
%TD*%
D22*
%TO.C,Q3*%
X188737500Y-35937500D03*
X188737500Y-37837500D03*
X190612500Y-36887500D03*
%TD*%
D15*
%TO.C,R26*%
X163975000Y-87350000D03*
X163975000Y-85350000D03*
%TD*%
M02*
